<svg xmlns="http://www.w3.org/2000/svg" viewBox="0 0 294.95 256.49"><defs><style>.cls-1,.cls-10,.cls-8,.cls-9{fill:none;}.cls-1,.cls-3,.cls-4,.cls-5,.cls-6,.cls-7,.cls-8,.cls-9{stroke:#263238;}.cls-1,.cls-4{stroke-miterlimit:10;}.cls-2,.cls-3{fill:#263238;}.cls-10,.cls-3,.cls-5,.cls-6,.cls-7,.cls-8,.cls-9{stroke-linecap:round;stroke-linejoin:round;}.cls-4,.cls-7{fill:#fff;}.cls-5{fill:#d9d9d9;}.cls-6{fill:#c6ff00;}.cls-9{stroke-width:2px;}.cls-10{stroke:#fff;}</style></defs><title>album</title><g id="Layer_2" data-name="Layer 2"><g id="Character"><path class="cls-1" d="M0,141.71H6.88v-8.43a3.85,3.85,0,0,1,3.85-3.85h0a3.85,3.85,0,0,1,3.85,3.85v24a4.14,4.14,0,0,0,4.14,4.14h0a4.14,4.14,0,0,0,4.14-4.14V113.8a5,5,0,0,1,5-5h0a5,5,0,0,1,5,5v58.26a4.74,4.74,0,0,0,4.73,4.73h0a4.73,4.73,0,0,0,4.73-4.73V101a6.21,6.21,0,0,1,6.21-6.21h0A6.21,6.21,0,0,1,54.82,101v70.75a5,5,0,0,0,5,5h0a5,5,0,0,0,5-5V115.36a5.92,5.92,0,0,1,5.92-5.92h0a5.92,5.92,0,0,1,5.92,5.92v41.59a4.44,4.44,0,0,0,4.44,4.44h0a4.44,4.44,0,0,0,4.44-4.44V134.34a4.23,4.23,0,0,1,4.23-4.23h0a4.23,4.23,0,0,1,4.23,4.23v7.37h7.88"/><path class="cls-1" d="M96.5,141.71h6.88v-8.43a3.85,3.85,0,0,1,3.85-3.85h0a3.85,3.85,0,0,1,3.85,3.85v24a4.14,4.14,0,0,0,4.14,4.14h0a4.14,4.14,0,0,0,4.14-4.14V113.8a5,5,0,0,1,5-5h0a5,5,0,0,1,5,5v58.26a4.74,4.74,0,0,0,4.73,4.73h0a4.73,4.73,0,0,0,4.73-4.73V101a6.21,6.21,0,0,1,6.21-6.21h0a6.21,6.21,0,0,1,6.21,6.21v70.75a5,5,0,0,0,5,5h0a5,5,0,0,0,5-5V115.36a5.92,5.92,0,0,1,5.92-5.92h0a5.92,5.92,0,0,1,5.92,5.92v41.59a4.44,4.44,0,0,0,4.44,4.44h0a4.44,4.44,0,0,0,4.44-4.44V134.34a4.23,4.23,0,0,1,4.23-4.23h0a4.23,4.23,0,0,1,4.23,4.23v7.37h7.88"/><path class="cls-1" d="M193,141.71h6.88v-8.43a3.85,3.85,0,0,1,3.85-3.85h0a3.85,3.85,0,0,1,3.85,3.85v24a4.14,4.14,0,0,0,4.14,4.14h0a4.14,4.14,0,0,0,4.14-4.14V113.8a5,5,0,0,1,5-5h0a5,5,0,0,1,5,5v58.26a4.74,4.74,0,0,0,4.73,4.73h0a4.73,4.73,0,0,0,4.73-4.73V101a6.21,6.21,0,0,1,6.21-6.21h0a6.21,6.21,0,0,1,6.21,6.21v70.75a5,5,0,0,0,5,5h0a5,5,0,0,0,5-5V115.36a5.92,5.92,0,0,1,5.92-5.92h0a5.92,5.92,0,0,1,5.92,5.92v41.59a4.44,4.44,0,0,0,4.44,4.44h0a4.44,4.44,0,0,0,4.44-4.44V134.34a4.23,4.23,0,0,1,4.23-4.23h0a4.23,4.23,0,0,1,4.23,4.23v7.37h7.88"/><path class="cls-2" d="M45.36,216.82a16,16,0,1,0,16,16A16,16,0,0,0,45.36,216.82Zm0,21.83a5.8,5.8,0,1,1,5.8-5.8A5.8,5.8,0,0,1,45.36,238.65Z"/><path class="cls-2" d="M45.36,191.58a9.89,9.89,0,1,0,9.89,9.89A9.89,9.89,0,0,0,45.36,191.58Zm0,13.47a3.58,3.58,0,1,1,3.58-3.58A3.58,3.58,0,0,1,45.36,205.05Z"/><rect class="cls-1" x="24.77" y="186.51" width="41.18" height="67.03" rx="3.94" ry="3.94"/><path class="cls-3" d="M120.6,32.65c0-1.39,1.9-2.89,1.73-4.23s-2.4-2.33-2.76-3.64,1.09-3.28.57-4.53-2.93-1.62-3.61-2.8.21-3.44-.63-4.53-3.24-.8-4.21-1.77-.68-3.37-1.77-4.21-3.34.06-4.53-.63-1.53-3.08-2.8-3.61-3.2.93-4.53.57S95.79.69,94.42.51s-2.84,1.73-4.23,1.73S87.3.34,86,.51s-2.33,2.4-3.64,2.76S79,2.18,77.78,2.7,76.16,5.62,75,6.31s-3.44-.21-4.53.63-.8,3.24-1.77,4.21-3.37.68-4.21,1.77.06,3.34-.63,4.53-3.08,1.53-3.61,2.8.93,3.2.57,4.53S58.22,27,58,28.42s1.73,2.84,1.73,4.23-1.9,2.89-1.73,4.23,2.4,2.33,2.76,3.64-1.09,3.28-.57,4.53,2.93,1.62,3.61,2.8-.21,3.44.63,4.53,3.24.8,4.21,1.77.68,3.37,1.77,4.21,3.34-.06,4.53.63,1.53,3.08,2.8,3.61,3.2-.93,4.53-.57,2.27,2.58,3.64,2.76,2.84-1.73,4.23-1.73,2.89,1.9,4.23,1.73,2.33-2.4,3.64-2.76,3.28,1.09,4.53.57,1.62-2.93,2.8-3.61,3.44.21,4.53-.63.8-3.24,1.77-4.21,3.37-.68,4.21-1.77-.06-3.34.63-4.53,3.08-1.53,3.61-2.8-.93-3.2-.57-4.53,2.58-2.27,2.76-3.64S120.6,34,120.6,32.65Z"/><path class="cls-4" d="M73.46,42.42a1,1,0,0,1-.92-.6A22.58,22.58,0,0,1,71,36.53C69,25.24,75.85,14.61,86.21,12.82s20.37,5.94,22.32,17.23c.11.65.2,1.31.25,2a1,1,0,1,1-2,.17c0-.59-.13-1.19-.23-1.79-1.76-10.2-10.73-17.2-20-15.6S71.16,26,72.92,36.19A20.57,20.57,0,0,0,74.38,41a1,1,0,0,1-.91,1.41Z"/><path class="cls-3" d="M140.51,186.35s40.63-10,53.29-22c0,0-3.67,19,3,29s33.27,36.46,37.94,41.79,13.4,17.87,16.06,17.54,10-12.33,12.33-15.67,6.39-5.45,7.06-11.11-2.67-6-4-4.33-8.22,6.88-12.55,8.21-9,2.89-9,2.89a222.7,222.7,0,0,1-18.5-31c-8-16.67-16.32-48-19-54.32s-6.67-8.33-11.67-8.33-21,0-49,12.33-27,24.33-24.33,28.67S131.48,188.06,140.51,186.35Z"/><path class="cls-5" d="M270.2,226c.67-5.67-2.67-6-4-4.33s-8.22,6.88-12.55,8.21-9,2.89-9,2.89A227.09,227.09,0,0,1,229,207.47a25.64,25.64,0,0,1-11.34,9.8c7.65,8.06,14.84,15.38,17.06,17.92,4.67,5.33,13.4,17.87,16.06,17.54s10-12.33,12.33-15.67S269.53,231.62,270.2,226Z"/><path class="cls-6" d="M89.49,58.92s4.39,9,4.88,12S91.45,75.52,88,76.26,79.24,75,73.87,81.14,55.32,113.85,53.36,118s0,7.57,5.37,6.59,19.77-20,19.77-20,17.82,21.73,20,26.36,1.46,12.45,1,20.51-1.71,19.77,5.61,29.29,22.7,12.21,35.4,5.61,26.4-29.35,20.29-38.62-19.81-13.86-24-22.65-2.71-13.65-2.71-22.68a148,148,0,0,0-2-20.67s21-5,45.33-8.33c8.46-1.16,3.17-10.74-1.71-12.69-6.12-2.45-33.23.39-40.62-.31-10.67-1-16.11,1.21-18.55,2.92s-5.61,4.15-8.3,3.91-5.61-13.43-5.61-13.43S95.6,59.66,89.49,58.92Z"/><path class="cls-2" d="M146.64,60.28l-2,.08A32.76,32.76,0,0,0,149,78.16l2.1-.41A31,31,0,0,1,146.64,60.28Z"/><path class="cls-2" d="M135.32,121.28c-.22-.65-.41-1.29-.57-1.91-15.13,3.36-27.93,13.16-34.76,19.29,0,.87,0,1.76,0,2.69C106.25,135.52,119.52,124.73,135.32,121.28Z"/><path class="cls-2" d="M96.67,127.93c.44.64.83,1.23,1.14,1.73,4.51-4.45,16-14,36.13-19.77,0-.69,0-1.41.08-2.13C113.32,113.54,101.56,123.11,96.67,127.93Z"/><path class="cls-2" d="M81.79,94.59c3.59-.39,20.71-3,45.59-19a66.63,66.63,0,0,0,3.93,6.74,1,1,0,0,0,.83.44l.16,0c-.1-.62-.16-1-.16-1l1-.23a1,1,0,0,0-.14-.34c-.08-.12-7.66-11.3-8.42-20.63-.7.1-1.37.22-2,.36a29.5,29.5,0,0,0,1.1,5.52,91.47,91.47,0,0,1-42.4,17,37.44,37.44,0,0,0-1.75-6.24,11.44,11.44,0,0,0-1.86.82,36.51,36.51,0,0,1,1.51,5.38,17.27,17.27,0,0,0-4.12-3.48,16.57,16.57,0,0,0-1.18,1.2l-.24.28c2.78,1.65,5.47,4.14,6.25,7.77a38.2,38.2,0,0,1-.18,5.88A17,17,0,0,0,70,86.66c-.34.55-.69,1.13-1,1.72A14.57,14.57,0,0,1,79,98.75a1,1,0,0,0,.09.22q-.34,1.61-.86,3.29a21,21,0,0,0-12.41-8.38l-1,1.81a18.63,18.63,0,0,1,12.6,9c-.29.81-.56,1.6-.83,2.38,1.19-1.5,1.92-2.47,1.92-2.47l.74.9.2-.56A41,41,0,0,0,81.79,94.59ZM124.3,68.42a54.11,54.11,0,0,0,2.2,5.33C102.84,89,86,92,81.93,92.56q.06-1.42,0-2.76a1,1,0,0,0,0-.39c0-.05,0-.1,0-.16-.06-1.35-.18-2.63-.35-3.82A93.7,93.7,0,0,0,124.3,68.42Z"/><path class="cls-2" d="M140.49,130c-.53-.54-1-1.08-1.49-1.65-17.4,5-31.14,14.85-39.44,22.09l-.06,1c0,.6-.08,1.23-.12,1.86C107.44,146,121.88,135.1,140.49,130Z"/><path class="cls-2" d="M134.11,100.29c0-.66,0-1.33-.08-2-25.66,1.36-38.31,14.51-43.32,21.59L92,121.54C96.42,115,108.52,101.65,134.11,100.29Z"/><path class="cls-2" d="M160,59.76l-2.08.06a32.68,32.68,0,0,0,1.85,16.35l2-.35A31.23,31.23,0,0,1,160,59.76Z"/><path class="cls-2" d="M132.53,60.22a60,60,0,0,0,6.43,20l2.06-.44a58.17,58.17,0,0,1-6.43-19.42C133.88,60.29,133.19,60.25,132.53,60.22Z"/><path class="cls-2" d="M133.23,89.4q-.13-1-.25-2c-29.06,3.5-43.65,15.83-49.79,22.95L84.5,112C90.31,105.27,104.64,92.89,133.23,89.4Z"/><path class="cls-3" d="M140.51,186.35c10.5-5.45,21.69-22,21.78-32.76a10.4,10.4,0,0,0-1.52-5.36c-.82-1.26-1.73-2.56-2.69-3.89-3.34-3.52-7.66-6.39-11.62-9.31-22.06,8.31-39.73,25-47,31.53a29,29,0,0,0,5.6,14.18C112.44,190.26,127.82,192.94,140.51,186.35Z"/><path class="cls-7" d="M74.73,38.74a4.45,4.45,0,0,0-1.26.25c-3.31,1.17-4.61,6-2.9,10.86s5.76,7.8,9.07,6.64a4.58,4.58,0,0,0,1.81-1.2Z"/><path class="cls-7" d="M74.73,38.74a4.34,4.34,0,0,0-2.32.79l7,17,.2-.06a4.58,4.58,0,0,0,1.81-1.2Z"/><path class="cls-7" d="M104.86,28.69a4.45,4.45,0,0,1,1.14-.6c3.31-1.17,7.37,1.8,9.07,6.63s.41,9.69-2.89,10.86a4.58,4.58,0,0,1-2.16.2Z"/><path class="cls-8" d="M104.86,28.69a4.34,4.34,0,0,1,2.3-.84l5.21,17.64-.19.09a4.58,4.58,0,0,1-2.16.2Z"/><path class="cls-5" d="M113.49,65.44c-1.73,1.08-3.55,1.93-5.19,1.78-2.69-.24-5.61-13.43-5.61-13.43s-7.08,5.86-13.18,5.13c0,0,4.39,9,4.88,12,.4,2.37-1.77,3.94-4.42,4.84,1.27,3.74,5.41,12.3,16.19,9.67C115.58,83.09,114.84,72.05,113.49,65.44Z"/><path class="cls-3" d="M104.79,61.37c-.58-1.71-1.09-3.49-1.46-4.9-.31-.81-.6-1.66-.88-2.51-1.19.93-7.46,5.61-13,5,0,0,1.48,3.06,2.82,6.19,2.36.7,5.68,1.24,8.29-.11A13.86,13.86,0,0,0,104.79,61.37Z"/><path class="cls-5" d="M75.34,35.49S78.75,50.13,81.19,54s11.23,8.54,15.38,9,7.08-4.64,9.52-8.79,3.17-7.57,2.2-12.94a79.81,79.81,0,0,0-6.59-18.55c-1.58-3-9-6.1-15.87-4.39S74.11,27.68,75.34,35.49Z"/><path class="cls-8" d="M90.71,43.79s.49-2.93,4.39-1.71"/><path class="cls-8" d="M88.27,48.67s6.84,3.91,11.72-4.15"/><path class="cls-9" d="M81.93,42.57S84.61,44,88,40.37"/><path class="cls-9" d="M95.6,37.44s5.13,1.71,6.59-2.2"/><path class="cls-8" d="M80.22,37.93s-.5-6.3,5.88-5.53"/><path class="cls-8" d="M92.91,30.12s2.93-3.17,7.32-.49"/><path class="cls-5" d="M66.79,42.32s-.73,7.57,0,9.52,7.32,9.28,8.54,11,1.46,2-1,6.59-22.7,34.66-23.44,42.23-.24,14.4,7.81,12.94,12.69-21.73,16.11-33.2S81.93,65,81.93,61.85s-10.26-11.08-11.36-12S69,44.76,69,42.57,67.77,40.37,66.79,42.32Z"/><path class="cls-6" d="M74.85,91.39c.34-1.14.68-2.31,1-3.5L65.46,83.8C59,94.24,51.37,107.07,50.92,111.65c-.73,7.57-.24,14.4,7.81,12.94S71.43,102.86,74.85,91.39Z"/><path class="cls-2" d="M60.79,91.46l-.12.21-.3.5-.65,1.1a99.15,99.15,0,0,1,13.36,4.28l.55-1.93A102.1,102.1,0,0,0,60.79,91.46Z"/><path class="cls-2" d="M64.29,120.23c.43-.62.85-1.3,1.26-2a39.88,39.88,0,0,1-14.86-2.31c0,.76,0,1.49.09,2.19A41.41,41.41,0,0,0,64.29,120.23Z"/><path class="cls-2" d="M54.47,102.67l-.26.51-.28.55-.42.87a49.55,49.55,0,0,1,16,4.36q.33-.95.65-1.91A50.75,50.75,0,0,0,54.47,102.67Z"/><path class="cls-5" d="M112.16,25.12s6.22,4.38,7.22,6.2,2.26,11.6,2.76,13.64.53,2.38,5.64,3.56,41.09,5.37,47.3,9.75,11.08,9.2,4.72,14.36-24.75-4.53-35.68-9.42-24.61-11.81-27-13.88-1.72-15-1.71-16.44-2.82-4.51-4.49-5.94S110,24.59,112.16,25.12Z"/><path class="cls-6" d="M144.12,63.21,140.8,61.7l3.69-10.56c12.13,1.89,26.83,4.48,30.59,7.13,6.22,4.38,11.08,9.2,4.72,14.36S155.05,68.1,144.12,63.21Z"/><path class="cls-2" d="M160.85,70.63l1.87.71,6.09-15.5-1.3-.34-.28-.07-.37-.09Z"/><path class="cls-2" d="M157.07,53.26l-.52-.1-1.38-.25-5.26,13,1.41.65.41.19,5.45-13.42Z"/><path class="cls-2" d="M178.21,60.65c-1.35,3.05-3.83,8.58-6.14,13.25a20,20,0,0,0,2.14.19c2.09-4.26,4.24-9,5.56-12C179.3,61.58,178.77,61.11,178.21,60.65Z"/><path class="cls-7" d="M245.29,236.05a13.5,13.5,0,0,1,3.67,3s-.9,2.43-6.29,6.61c3.58,3.56,6.78,7.24,8.14,7.07,2.67-.33,10-12.33,12.33-15.67s6.39-5.45,7.06-11.11-2.67-6-4-4.33-9.5,7.13-13.83,8.47-7.75,2.64-7.75,2.64S243.29,235.05,245.29,236.05Z"/><path class="cls-7" d="M269.32,221.35c-.86,6.85-3,9.07-11,17.67-6.23,6.71-8.63,10.86-9.55,12.9a3.68,3.68,0,0,0,2,.82c2.67-.33,10-12.33,12.33-15.67s6.39-5.45,7.06-11.11C270.48,223.52,270,222.08,269.32,221.35Z"/><path class="cls-10" d="M118.89,161.44s1.08-.79,2.89-2.08"/><path class="cls-3" d="M115.14,163.73s33-25.33,58.67-34.67,34.33-3,32.67,6-13.33,38-22.33,54-24.33,42.33-24.33,42.33,14.67,20.33,16,22.67-8.33,2.67-12.33.33a108.44,108.44,0,0,1-10-6c-11.66-7.66-12.33-10.66-10.67-13.33,5.33-8.55,11.76-15.7,14.34-26,4.68-18.73,13.36-43,14.33-40.33a81.7,81.7,0,0,1-29.33,18c-17.67,6-29.18,4.45-37-6"/><path class="cls-10" d="M126.13,156.3c6.5-4.52,16-10.93,22.93-14.51"/><path class="cls-10" d="M159.57,177.43l8.68-7.31S173.74,149.55,187,139"/><line class="cls-10" x1="195.22" y1="166.01" x2="193.39" y2="170.58"/><line class="cls-10" x1="203.44" y1="145.44" x2="196.82" y2="161.99"/><path class="cls-5" d="M163.48,254.4c4,2.33,13.67,2,12.33-.33s-16-22.67-16-22.67,4.06-7,9.23-15.92c-6.44-.83-10.06-3.56-12-5.92-2.66,10-9,17.1-14.2,25.51-1.66,2.67-1,5.67,10.67,13.33A108.47,108.47,0,0,0,163.48,254.4Z"/><path class="cls-7" d="M159.81,231.4s-1.33-1-3,1.67a33.67,33.67,0,0,0-2.67,5.33l-7.73-8.78c-1.22,1.78-2.44,3.58-3.6,5.45-1.66,2.67-1,5.67,10.67,13.33a108.47,108.47,0,0,0,10,6c4,2.33,13.67,2,12.33-.33S159.81,231.4,159.81,231.4Z"/><path class="cls-7" d="M153.48,248.4a108.47,108.47,0,0,0,10,6c3.6,2.1,11.78,2,12.42.31-15.18-.8-27.76-12.89-33.33-19.2C141.25,238.07,142.44,241.15,153.48,248.4Z"/></g></g></svg>