<svg xmlns="http://www.w3.org/2000/svg" viewBox="0 0 184.48 308.45"><defs><style>.cls-1{fill:#e8505b;}.cls-2{fill:#263238;}.cls-3{opacity:0.3;}.cls-4{fill:#fafafa;}.cls-5{fill:#ffbe9d;}.cls-6{fill:#eb996e;}.cls-7{fill:#455a64;}.cls-8{opacity:0.4;}.cls-9{fill:#ebebeb;}</style></defs><title>playlist</title><g id="Layer_2" data-name="Layer 2"><g id="Musical_Notes" data-name="Musical Notes"><ellipse class="cls-1" cx="119.69" cy="57.51" rx="10.96" ry="11.74"/><path class="cls-2" d="M118.82,45.77a13.13,13.13,0,0,1-1.21.61,9.93,9.93,0,0,0-2.88,2.21,11,11,0,0,0-2.38,4.78,12.48,12.48,0,0,0,0,6.52,12.65,12.65,0,0,0,3.28,5.64,10.08,10.08,0,0,0,4.6,2.67,7.29,7.29,0,0,0,3.59.06c.83-.21,1.26-.46,1.28-.42s-.09.08-.29.2a4.47,4.47,0,0,1-.93.41,7.06,7.06,0,0,1-3.74.1,10.2,10.2,0,0,1-4.85-2.68A12.86,12.86,0,0,1,111.88,60a12.7,12.7,0,0,1,0-6.78,11.09,11.09,0,0,1,2.57-4.91,9.28,9.28,0,0,1,3.06-2.14,7.11,7.11,0,0,1,1-.35C118.7,45.78,118.82,45.76,118.82,45.77Z"/><path class="cls-2" d="M110.18,63.6c-.07,0-.16-.22-.12-.59a2,2,0,0,1,2.07-1.77c.38,0,.58.15.57.22s-.89,0-1.61.66S110.32,63.6,110.18,63.6Z"/><path class="cls-2" d="M110.64,60c-.05-.13.28-.37.76-.39s.83.21.78.34-.38.16-.77.18S110.68,60.12,110.64,60Z"/><path class="cls-2" d="M110.64,50.29c-.07-.13.59-.46,1.36-.16s1,1,.89,1-.49-.33-1.08-.55S110.68,50.43,110.64,50.29Z"/><path class="cls-2" d="M147.14,308.15s2.1-6.84,1.68-9.73-4.31-5.52-4.31-5.52l4.22-109.65s.55-48-24.84-62.87l-15.15-3.82-37.37-2.21c-1.21.4-45.13,16.92-51.17,23.37l18.94,96.7s-2.3,28.57-4.6,49.11c-.47,4.2-3.62,24.93-3.62,24.93Z"/><g class="cls-3"><path d="M35.23,277.06c.35,2.67,1.37,5.92,3.93,6.74a16.63,16.63,0,0,0,8,.12c9.37-1.67,18-6.07,26.45-10.42,15.82-8.12,31.78-16.34,45.43-27.73,1.92-1.6,4-4.1,2.79-6.3-1.33-2.5-5.08-1.66-7.65-.48-26.82,12.37-52.12,25.71-78.94,38.07"/></g><path class="cls-2" d="M129.56,123.36s16.73,5.58,22.14,21.08c6,17.12,9.94,50.36,9.94,50.36l-16.53,2.08Z"/><path class="cls-2" d="M20.2,137.71s-9,11.8-13.34,26.14S0,219.75,0,219.75l45-.63,2.39-36.56S51.93,121.55,20.2,137.71Z"/><path class="cls-4" d="M155.74,159.38a5.15,5.15,0,0,0-1.24-1.17,6.15,6.15,0,0,0-4.74-.91c-2.18.32-4.3,2-7.09,3.1A8,8,0,0,1,138,161c-1.65-.36-3.07-1.54-4.58-2.68a12.27,12.27,0,0,0-2.5-1.57,4,4,0,0,0-3.11-.13,5.28,5.28,0,0,0-2.42,2.16c-.62.9-1.12,1.89-1.77,2.77a4.94,4.94,0,0,1-2.54,2,6,6,0,0,1-3.34,0,12.81,12.81,0,0,1-3.26-1.4c-1-.61-2-1.36-3.12-2a14.73,14.73,0,0,0-3.48-1.69,6.54,6.54,0,0,0-4,0,10.36,10.36,0,0,0-3.46,2.11c-1,.88-2,1.83-3.06,2.66a7.76,7.76,0,0,1-3.56,1.75,7.37,7.37,0,0,1-4-.41c-2.6-1-4.9-2.74-7.45-4.15a14.13,14.13,0,0,0-4.07-1.62A8,8,0,0,0,74,159c-2.73,1.06-4.75,3.12-7.17,4.28a8.54,8.54,0,0,1-1.86.66,7.47,7.47,0,0,1-1.94.12A10.76,10.76,0,0,1,59.32,163c-2.37-1.07-4.51-2.57-7-3.37a7.58,7.58,0,0,0-3.78-.34A7.07,7.07,0,0,0,45.29,161c-1.84,1.53-3.28,3.48-5.38,4.13a6.3,6.3,0,0,1-3.15.09,22.64,22.64,0,0,1-3-.9c-1.93-.68-4-1.38-5.91-.93a6.28,6.28,0,0,0-2.54,1.25c-.73.56-1.36,1.17-2,1.74a10.8,10.8,0,0,1-2,1.45,6.59,6.59,0,0,1-2.17.7,9,9,0,0,1-4.08-.42A12.13,12.13,0,0,1,12,166.47a27.37,27.37,0,0,1-3.68-3.19l-.9-.9a2.69,2.69,0,0,0-.32-.3,2.67,2.67,0,0,0,.28.33l.86.94a25.47,25.47,0,0,0,3.64,3.28A12.22,12.22,0,0,0,15,168.3a9.22,9.22,0,0,0,4.2.47,6.87,6.87,0,0,0,2.27-.71,11.06,11.06,0,0,0,2-1.47c1.29-1.1,2.57-2.51,4.41-2.88s3.77.26,5.7,1a22.92,22.92,0,0,0,3.06.93A6.72,6.72,0,0,0,40,165.5a8.22,8.22,0,0,0,3-1.82c.87-.77,1.68-1.63,2.58-2.37a6.61,6.61,0,0,1,3.09-1.57,7.12,7.12,0,0,1,3.54.33c2.35.77,4.49,2.27,6.9,3.37A11.23,11.23,0,0,0,63,164.55a8,8,0,0,0,2.08-.13,9,9,0,0,0,2-.7c2.52-1.21,4.54-3.26,7.13-4.25a7.5,7.5,0,0,1,4.05-.32,13.65,13.65,0,0,1,3.92,1.57c2.51,1.38,4.82,3.16,7.53,4.19a7.89,7.89,0,0,0,4.26.43,8.26,8.26,0,0,0,3.78-1.85c2.17-1.69,3.9-3.89,6.36-4.7a6,6,0,0,1,3.69,0,14.29,14.29,0,0,1,3.36,1.63c1.07.65,2.06,1.39,3.13,2a13.25,13.25,0,0,0,3.38,1.44,6.41,6.41,0,0,0,3.59,0,5.38,5.38,0,0,0,2.75-2.13c.67-.92,1.17-1.91,1.77-2.79a4.88,4.88,0,0,1,2.22-2,3.58,3.58,0,0,1,2.81.11,12,12,0,0,1,2.43,1.51c1.5,1.12,3,2.34,4.73,2.71a8.29,8.29,0,0,0,4.81-.63c2.83-1.12,4.91-2.83,7-3.17a6.09,6.09,0,0,1,4.64.8A10.75,10.75,0,0,1,155.74,159.38Z"/><path class="cls-4" d="M161,186.41l-.44,0-1.29.13a11.15,11.15,0,0,1-4.92-.13c-1.06-.23-2.25-.44-3.55-.67s-2.7-.54-4.24-.73a11.7,11.7,0,0,0-4.95.36c-1.7.5-3.35,1.37-5.17,2a10,10,0,0,1-5.89.17c-2-.48-4-1.42-6.2-2.17a11.69,11.69,0,0,0-7-.68c-2.42.68-4.37,2.47-6.8,3.06a5.74,5.74,0,0,1-1.84.13,8.71,8.71,0,0,1-1.84-.44c-1.22-.42-2.4-1-3.69-1.49a5.91,5.91,0,0,0-4.14-.14,15.11,15.11,0,0,0-3.5,2.32,8.41,8.41,0,0,1-1.74,1.05,4.93,4.93,0,0,1-2,.37,10.65,10.65,0,0,1-4-1.19,23.56,23.56,0,0,0-4.08-1.64,6.74,6.74,0,0,0-2.27-.16,6.28,6.28,0,0,0-2.18.71,38.25,38.25,0,0,0-3.66,2.51,9.32,9.32,0,0,1-1.86,1,4.55,4.55,0,0,1-1,.28l-.51.09-.52,0a11.24,11.24,0,0,1-4.08-.85c-1.32-.48-2.62-1-4-1.45a8,8,0,0,0-4.21-.3,7.71,7.71,0,0,0-3.55,2.13A27.13,27.13,0,0,1,53,193.38a5.5,5.5,0,0,1-3.51,1A9.57,9.57,0,0,1,46,193.32c-1.11-.54-2.17-1.17-3.23-1.76-2.1-1.16-4.41-2.24-6.8-2a13.07,13.07,0,0,0-6,2.81,33.7,33.7,0,0,1-5,3.36,14.52,14.52,0,0,1-5.24,1.42,18.35,18.35,0,0,1-4.86-.38,17.43,17.43,0,0,1-7-3.41,15.71,15.71,0,0,1-3.25-3.72c-.28-.49-.47-.89-.61-1.14a2.82,2.82,0,0,0-.22-.38,2.77,2.77,0,0,0,.17.41c.13.26.3.67.57,1.17a15.19,15.19,0,0,0,3.21,3.82,17.48,17.48,0,0,0,7.05,3.54,18.54,18.54,0,0,0,4.94.42,14.83,14.83,0,0,0,5.38-1.42,33.79,33.79,0,0,0,5.09-3.37A12.71,12.71,0,0,1,36,190c2.23-.25,4.45.77,6.53,1.94,1.06.59,2.11,1.23,3.25,1.78a10,10,0,0,0,3.69,1.13,6,6,0,0,0,3.82-1.08,27.26,27.26,0,0,0,3-2.68,7.23,7.23,0,0,1,3.33-2,7.5,7.5,0,0,1,4,.3c1.32.39,2.61,1,3.95,1.44a11.72,11.72,0,0,0,4.27.89l.56,0,.56-.1a5,5,0,0,0,1.09-.31,9.82,9.82,0,0,0,2-1.07,38.49,38.49,0,0,1,3.6-2.48,5.76,5.76,0,0,1,2-.65,6.22,6.22,0,0,1,2.09.14,23.24,23.24,0,0,1,4,1.6,11.1,11.1,0,0,0,4.18,1.23,5.45,5.45,0,0,0,2.17-.41,8.9,8.9,0,0,0,1.85-1.12,14.82,14.82,0,0,1,3.37-2.26,5.41,5.41,0,0,1,3.8.14c1.25.43,2.43,1,3.69,1.48a9.18,9.18,0,0,0,2,.46,6.22,6.22,0,0,0,2-.14c2.59-.66,4.52-2.45,6.81-3.09a11.27,11.27,0,0,1,6.78.65c2.14.73,4.16,1.67,6.25,2.15a10.34,10.34,0,0,0,6.1-.21c1.86-.64,3.49-1.51,5.15-2a11.43,11.43,0,0,1,4.82-.38c1.52.16,2.92.47,4.23.68s2.49.4,3.55.62c.53.1,1,.22,1.51.29a5.72,5.72,0,0,0,1.36,0c.83-.09,1.53-.19,2.1-.27l1.29-.18Z"/><path class="cls-4" d="M144.39,210h-.3l-.87.09c-.76.08-1.89.23-3.33.45-2.89.4-7,1.26-12.21,1.68a42.72,42.72,0,0,1-8.47-.15,20.26,20.26,0,0,0-4.79,0,8.54,8.54,0,0,0-2.44.72,11.85,11.85,0,0,0-2.17,1.42c-1.36,1.05-2.65,2.32-4.32,2.83a4.53,4.53,0,0,1-2.56,0,17.66,17.66,0,0,1-2.54-1,9.68,9.68,0,0,0-2.75-.92,4.32,4.32,0,0,0-2.92.63c-1.73,1-2.86,2.8-4.62,3.54s-3.77.29-5.58-.25a21.61,21.61,0,0,0-5.62-1.3,6.38,6.38,0,0,0-2.81.58,10.55,10.55,0,0,0-2.31,1.56A19.66,19.66,0,0,1,69.68,223a6.26,6.26,0,0,1-4.74,0c-1.54-.48-3-1.23-4.49-1.58a6.57,6.57,0,0,0-4.47.33,3.66,3.66,0,0,0-1.53,1.55,13.7,13.7,0,0,0-.7,1.9,4.31,4.31,0,0,1-.86,1.6,3.44,3.44,0,0,1-1.43.92,5.25,5.25,0,0,1-3.16,0,5.62,5.62,0,0,1-2.37-1.46,9.44,9.44,0,0,1-1.45-1.9,21.51,21.51,0,0,1-1.41-3l-.32-.81a1.27,1.27,0,0,0-.12-.27,1.28,1.28,0,0,0,.07.29l.27.83a19.11,19.11,0,0,0,1.33,3.09,9.49,9.49,0,0,0,1.44,2A5.86,5.86,0,0,0,48.2,228a5.53,5.53,0,0,0,3.36.05,3.77,3.77,0,0,0,1.59-1,4.66,4.66,0,0,0,1-1.72,13.6,13.6,0,0,1,.69-1.84,3.26,3.26,0,0,1,1.37-1.37,6.18,6.18,0,0,1,4.19-.27c1.46.33,2.87,1.09,4.45,1.59a9.24,9.24,0,0,0,2.49.5,5.69,5.69,0,0,0,2.59-.51,19.85,19.85,0,0,0,4.24-3.23,10.08,10.08,0,0,1,2.2-1.49,5.88,5.88,0,0,1,2.59-.53,21.35,21.35,0,0,1,5.48,1.29,15.55,15.55,0,0,0,2.9.64,6,6,0,0,0,3-.41c2-.85,3.09-2.63,4.68-3.58a3.79,3.79,0,0,1,2.59-.57,9.23,9.23,0,0,1,2.6.88,18,18,0,0,0,2.62,1.06,5,5,0,0,0,2.83,0c1.83-.57,3.13-1.89,4.47-2.93a11.43,11.43,0,0,1,2.08-1.37,8.08,8.08,0,0,1,2.3-.69,20,20,0,0,1,4.68,0,42.53,42.53,0,0,0,8.54.09c5.21-.48,9.33-1.39,12.21-1.85l3.31-.54.86-.14Z"/><path class="cls-4" d="M145.79,276.69l-.29-.12-.88-.31c-.77-.27-1.9-.68-3.38-1.16a26,26,0,0,0-5.52-1.29,8.07,8.07,0,0,0-3.51.58,16.49,16.49,0,0,1-3.75,1.07,8.18,8.18,0,0,1-4.1-.93,23.7,23.7,0,0,0-4.41-1.77,10.85,10.85,0,0,0-5.1.3c-1.7.45-3.36,1.12-5.11,1.63a11.09,11.09,0,0,1-5.43.47,35.16,35.16,0,0,1-5.42-2.11,9,9,0,0,0-3-.71,5.46,5.46,0,0,0-3.06.8c-1.83,1.09-3.14,2.86-5.05,3.57a5,5,0,0,1-3,.07A17.17,17.17,0,0,1,82,275.71a21.1,21.1,0,0,0-2.88-1.14A5.46,5.46,0,0,0,76,274.5a6,6,0,0,0-2.54,1.69c-.7.7-1.32,1.45-2,2a5.57,5.57,0,0,1-5.09,1.06c-1.77-.35-3.43-1-5.13-1.48a10.3,10.3,0,0,0-2.59-.39,4.74,4.74,0,0,0-2.49.6,5.06,5.06,0,0,0-1.81,1.68c-.46.66-.82,1.35-1.19,2a5.61,5.61,0,0,1-2.91,2.91,5,5,0,0,1-3.7-.38,8.65,8.65,0,0,1-2.73-2.09,25.83,25.83,0,0,1-2.89-4.8,19.47,19.47,0,0,0-1.88-3,6.94,6.94,0,0,0-.85-.92s.28.33.76,1a21.63,21.63,0,0,1,1.78,3.07,25.13,25.13,0,0,0,2.85,4.9,8.9,8.9,0,0,0,2.81,2.19,5.28,5.28,0,0,0,4,.43,6,6,0,0,0,3.14-3.06c.76-1.29,1.45-2.79,2.86-3.51s3.12-.58,4.75-.15,3.32,1.14,5.15,1.51a7.38,7.38,0,0,0,2.85.11,5.87,5.87,0,0,0,1.42-.43,6.34,6.34,0,0,0,1.24-.83c.76-.64,1.39-1.39,2.07-2.07A5.55,5.55,0,0,1,76.1,275a5,5,0,0,1,2.83.07,20.75,20.75,0,0,1,2.81,1.12,17.57,17.57,0,0,0,3,1.12,5.56,5.56,0,0,0,3.25-.08c2.11-.81,3.42-2.62,5.14-3.62a4.94,4.94,0,0,1,2.78-.74,8.54,8.54,0,0,1,2.84.67,35,35,0,0,0,5.51,2.12,11.55,11.55,0,0,0,5.67-.5c1.77-.53,3.43-1.2,5.09-1.65a10.44,10.44,0,0,1,4.89-.32,23.61,23.61,0,0,1,4.34,1.71,8.52,8.52,0,0,0,4.3.92,16.6,16.6,0,0,0,3.83-1.12,7.79,7.79,0,0,1,3.38-.6,26.7,26.7,0,0,1,5.48,1.19l3.41,1.07.89.26Z"/><path class="cls-4" d="M89.61,251.92a3.26,3.26,0,0,0,.57.36,12.66,12.66,0,0,0,1.76.8,14.48,14.48,0,0,0,7.05.73,15,15,0,0,0,2.32-.54c.79-.25,1.58-.61,2.38-.95a5.45,5.45,0,0,1,2.54-.52,5.3,5.3,0,0,1,2.51,1.08c.8.56,1.57,1.23,2.48,1.79a5.79,5.79,0,0,0,1.5.66,3.71,3.71,0,0,0,.83.13,3.47,3.47,0,0,0,.85,0c2.29-.29,4.11-1.8,6.09-2.81a5.49,5.49,0,0,1,3.08-.79l.38,0c.12,0,.24.08.36.12a2.91,2.91,0,0,1,.69.32,6.26,6.26,0,0,1,1.17,1,20.9,20.9,0,0,0,2.2,2.33,3.26,3.26,0,0,0,1.49.69,2.77,2.77,0,0,0,1.6-.24,5.94,5.94,0,0,0,2.12-2.1,20.24,20.24,0,0,1,1.59-2.17,5.53,5.53,0,0,1,4.25-1.69,6.38,6.38,0,0,1,3.59,1.45,8.72,8.72,0,0,1,2.08,2.15,4.56,4.56,0,0,1,.81,2.4,1.84,1.84,0,0,0,0-.68,4.37,4.37,0,0,0-.66-1.83,8.63,8.63,0,0,0-2.07-2.27,6.63,6.63,0,0,0-3.75-1.58,5.89,5.89,0,0,0-4.59,1.77,20.16,20.16,0,0,0-1.65,2.21,5.55,5.55,0,0,1-1.94,1.93,2.41,2.41,0,0,1-2.59-.41,21.18,21.18,0,0,1-2.13-2.29,6.73,6.73,0,0,0-1.27-1.11,3.41,3.41,0,0,0-.8-.37c-.14,0-.28-.11-.42-.14l-.44-.06a6,6,0,0,0-3.38.84c-2,1-3.85,2.51-5.91,2.76a4.36,4.36,0,0,1-2.86-.68c-.86-.52-1.63-1.18-2.46-1.75a5.74,5.74,0,0,0-2.75-1.14,5.86,5.86,0,0,0-2.75.58c-.82.35-1.58.71-2.34,1a14.47,14.47,0,0,1-9.18,0C90.43,252.37,89.64,251.87,89.61,251.92Z"/><path class="cls-4" d="M144.81,303.4l-.3.08-.36.12-.52.08a6.29,6.29,0,0,1-3.35-.81,25.3,25.3,0,0,0-5.13-2.26,4.88,4.88,0,0,0-3.48.5,26.42,26.42,0,0,0-3.22,2.26,5.72,5.72,0,0,1-3.84,1.36,13.86,13.86,0,0,1-4.3-1.55,10.21,10.21,0,0,0-2.38-.79,7.2,7.2,0,0,0-2.6.05c-1.73.32-3.36,1.06-5.08,1.53a10.64,10.64,0,0,1-5.39.08,37.6,37.6,0,0,1-5.47-1.81,25.18,25.18,0,0,0-5.82-1.68,11.06,11.06,0,0,0-6.17,1c-1.94.84-3.71,1.93-5.58,2.68a8.69,8.69,0,0,1-5.71.53c-3.74-1.07-6.46-4.1-10-5.27a8.23,8.23,0,0,0-5.34,0,18.64,18.64,0,0,0-4.48,2.32c-1.35.89-2.62,1.79-3.91,2.52a14.31,14.31,0,0,1-3.92,1.57,14.68,14.68,0,0,1-7.23-.3,15,15,0,0,1-4.9-2.51,15.24,15.24,0,0,1-3.2-3.46,1.39,1.39,0,0,0,.15.27l.49.78a13.28,13.28,0,0,0,2.44,2.57,15,15,0,0,0,12.33,3,14.63,14.63,0,0,0,4-1.58c1.32-.74,2.6-1.63,3.95-2.51a18.31,18.31,0,0,1,4.38-2.24,7.76,7.76,0,0,1,5.05,0,22,22,0,0,1,4.82,2.63A19.12,19.12,0,0,0,76,305.24a9.2,9.2,0,0,0,6-.54c1.92-.77,3.69-1.86,5.59-2.68a10.54,10.54,0,0,1,5.9-.94,24.81,24.81,0,0,1,5.71,1.64,37.79,37.79,0,0,0,5.55,1.82,11.12,11.12,0,0,0,5.62-.1c1.77-.49,3.39-1.23,5-1.55a6.75,6.75,0,0,1,2.44-.07,9.81,9.81,0,0,1,2.28.74,14.08,14.08,0,0,0,4.44,1.56,6.09,6.09,0,0,0,4.08-1.46,26.66,26.66,0,0,1,3.15-2.26,4.59,4.59,0,0,1,3.27-.5,26.15,26.15,0,0,1,5.1,2.16,6.23,6.23,0,0,0,3.44.73l.53-.1.36-.15Z"/><path class="cls-4" d="M142.34,131.46s-.29.36-1,.9a8.13,8.13,0,0,1-3.44,1.5,20.1,20.1,0,0,1-6,.12c-1.17-.09-2.43-.21-3.78-.19a11.74,11.74,0,0,0-4.2.75,39.27,39.27,0,0,0-4.14,2.17,13.74,13.74,0,0,1-2.23,1,9.25,9.25,0,0,1-2.47.41,25,25,0,0,1-5.31-.61,19.4,19.4,0,0,0-5.76-.44,14.12,14.12,0,0,0-5.61,2.32,15.23,15.23,0,0,1-5.6,2.49,8.63,8.63,0,0,1-3.1-.21,19.09,19.09,0,0,1-3-1.13,37.83,37.83,0,0,0-6.2-2.64,8.8,8.8,0,0,0-3.45-.21,9.82,9.82,0,0,0-3.19,1.19c-1.95,1.1-3.62,2.53-5.52,3.41a10.28,10.28,0,0,1-6,.74,38.12,38.12,0,0,1-5.79-1.5,32.89,32.89,0,0,0-5.6-1.36,15.3,15.3,0,0,0-5.44.34,67.54,67.54,0,0,0-9.12,3.37,15.32,15.32,0,0,1-7.74,1.23,18.42,18.42,0,0,1-5.8-1.45,11.29,11.29,0,0,1-4.1-3,6.09,6.09,0,0,0,.85,1,10.81,10.81,0,0,0,3.16,2.16,18.29,18.29,0,0,0,5.85,1.56,17,17,0,0,0,3.8,0,16,16,0,0,0,4.1-1.14,68.62,68.62,0,0,1,9.08-3.29,14.9,14.9,0,0,1,5.29-.31A32.63,32.63,0,0,1,56.42,142a38.31,38.31,0,0,0,5.86,1.53,10.77,10.77,0,0,0,6.28-.77c2-.92,3.67-2.35,5.56-3.42a9.32,9.32,0,0,1,3-1.13,8.29,8.29,0,0,1,3.24.2A37.77,37.77,0,0,1,86.48,141a19.53,19.53,0,0,0,3.11,1.16,9.13,9.13,0,0,0,3.3.22,15.63,15.63,0,0,0,5.79-2.57,13.68,13.68,0,0,1,5.41-2.27c3.85-.42,7.46,1.17,11,1a9.65,9.65,0,0,0,2.58-.44,14.08,14.08,0,0,0,2.29-1,39.59,39.59,0,0,1,4.08-2.18c2.74-1.09,5.51-.75,7.83-.61a19.9,19.9,0,0,0,6.05-.21,8,8,0,0,0,3.46-1.62A4.54,4.54,0,0,0,142.34,131.46Z"/><path class="cls-2" d="M141.66,294.89a2.13,2.13,0,0,0-.54.06l-1.52.28L134,296.3c-4.71.88-11.24,2-18.48,3s-13.83,1.7-18.61,2.14l-5.66.5-1.54.15a2.13,2.13,0,0,0-.53.09,2.12,2.12,0,0,0,.54,0l1.54-.05c1.34-.05,3.28-.17,5.67-.34,4.79-.34,11.39-1,18.65-2s13.78-2.21,18.48-3.18c2.35-.49,4.25-.91,5.55-1.23l1.5-.37A2.12,2.12,0,0,0,141.66,294.89Z"/><path class="cls-2" d="M119.68,292.29a5.19,5.19,0,0,0-.83.18c-.54.12-1.32.38-2.36.57A49.23,49.23,0,0,1,58,256.49c-.28-1-.39-1.83-.52-2.37a5.19,5.19,0,0,0-.2-.82,5.18,5.18,0,0,0,.1.84c.1.55.18,1.37.43,2.4a45.7,45.7,0,0,0,2.72,8.53,48.43,48.43,0,0,0,47.2,29.47,45.7,45.7,0,0,0,8.86-1.31c1-.23,1.81-.52,2.34-.67A5.17,5.17,0,0,0,119.68,292.29Z"/><path class="cls-2" d="M110.82,116.51a3.75,3.75,0,0,0,0,.72v2.06a30,30,0,0,1-.76,7.49,13.54,13.54,0,0,1-2.16,4.66,13.29,13.29,0,0,1-4.47,3.8,22.81,22.81,0,0,1-6.17,2.21,29.23,29.23,0,0,1-7,.68,25.72,25.72,0,0,1-13-3.67,20.45,20.45,0,0,1-7.46-8.09,18.1,18.1,0,0,1-1.95-7.22c-.06-1.78.12-2.77.06-2.77a3.72,3.72,0,0,0-.13.71,13.46,13.46,0,0,0-.13,2.07,17.62,17.62,0,0,0,1.82,7.37A20.57,20.57,0,0,0,77,134.86a25.93,25.93,0,0,0,13.23,3.78,29.39,29.39,0,0,0,7.15-.7,23,23,0,0,0,6.29-2.29,13.64,13.64,0,0,0,4.59-4,13.78,13.78,0,0,0,2.17-4.82,28.22,28.22,0,0,0,.61-7.59c0-.9-.08-1.59-.11-2.06A3.76,3.76,0,0,0,110.82,116.51Z"/><path class="cls-5" d="M91,136.45h0a20.06,20.06,0,0,0,18.43-21c-.38-7.6-.77-14.45-.77-14.45S125,98.48,125.17,82.19s-2.62-53.69-2.62-53.69h0a56.61,56.61,0,0,0-56.88,7.15l-2.41,1.86L69.42,118A20.05,20.05,0,0,0,91,136.45Z"/><path class="cls-6" d="M108.7,100.78a37.88,37.88,0,0,1-21.23-6s5,11.72,21.27,10.26Z"/><path class="cls-2" d="M110.5,54.21c.27-.32,2.1.89,4.6.76s4.27-1.48,4.55-1.19c.14.13-.13.69-.89,1.31a6.38,6.38,0,0,1-3.63,1.32,6.13,6.13,0,0,1-3.68-1C110.66,54.89,110.37,54.35,110.5,54.21Z"/><path class="cls-2" d="M85.83,54.76c.29-.3,2,1,4.55,1s4.35-1.22,4.62-.91c.13.14-.16.68-1,1.26a6.38,6.38,0,0,1-3.7,1.11A6.13,6.13,0,0,1,86.71,56C85.95,55.44,85.69,54.89,85.83,54.76Z"/><path class="cls-2" d="M103.94,70.44c0-.14,1.54-.41,4.07-.73.64-.07,1.24-.19,1.35-.63a3.25,3.25,0,0,0-.43-1.89L107,62.32c-2.62-6.93-4.53-12.63-4.25-12.73s2.63,5.43,5.26,12.36l1.81,4.9a3.7,3.7,0,0,1,.33,2.51,1.6,1.6,0,0,1-1.05.93,4.35,4.35,0,0,1-1.09.15C105.52,70.57,104,70.59,103.94,70.44Z"/><path class="cls-2" d="M96.57,72.17c.41,0,.41,2.69,2.74,4.62s5.22,1.63,5.24,2c0,.17-.65.53-1.87.56a6.76,6.76,0,0,1-4.37-1.52A5.89,5.89,0,0,1,96.19,74C96.09,72.83,96.39,72.16,96.57,72.17Z"/><path class="cls-2" d="M95.5,42.07c-.25.68-2.75.36-5.68.71s-5.31,1.15-5.7.54c-.17-.29.24-.93,1.2-1.59a10,10,0,0,1,8.67-1C95.07,41.21,95.61,41.75,95.5,42.07Z"/><path class="cls-2" d="M118.54,44.17c-.44.57-2.16,0-4.24,0s-3.83.38-4.23-.21c-.18-.29.1-.86.87-1.4a6.14,6.14,0,0,1,6.83.21C118.49,43.31,118.74,43.89,118.54,44.17Z"/><path class="cls-5" d="M65.25,54.38c-.28-.12-11.19-3.31-10.84,7.83s11.46,8.48,11.47,8.16S65.25,54.38,65.25,54.38Z"/><path class="cls-6" d="M62.35,66.26s-.19.14-.51.3a1.94,1.94,0,0,1-1.45.08C59.2,66.24,58.15,64.4,58,62.4a6.41,6.41,0,0,1,.45-2.79,2.24,2.24,0,0,1,1.41-1.54,1,1,0,0,1,1.16.5c.16.31.1.53.16.55s.23-.19.13-.65a1.24,1.24,0,0,0-.46-.68,1.46,1.46,0,0,0-1.08-.25,2.73,2.73,0,0,0-2,1.79,6.59,6.59,0,0,0-.57,3.13c.14,2.24,1.36,4.3,3,4.72A2.08,2.08,0,0,0,62,66.81C62.34,66.53,62.39,66.28,62.35,66.26Z"/><path class="cls-2" d="M128.78,14.43A17.22,17.22,0,0,0,102,9.28,17.17,17.17,0,0,0,89.13.13q-.51-.07-1-.1A14.69,14.69,0,0,0,73,11.89l-.8,3.86s-13.77,4.69-17,7.24a12.3,12.3,0,0,0,4.39,21.43c-3.49,6.3-.22,15.34,6.5,17.94l1.62-.67a23.18,23.18,0,0,0,3.37-25.57c.2,0,.39,0,.58,0a13,13,0,0,0,16.95-3.87,14.46,14.46,0,0,0,15.52.65,6,6,0,0,1,2.34-1.06,5.55,5.55,0,0,1,2.92.87,13.71,13.71,0,0,0,7.88,1.59A7.63,7.63,0,0,0,123.27,30l.19,0A8.76,8.76,0,0,0,130,23.7,13,13,0,0,0,128.78,14.43Z"/><path class="cls-1" d="M57.36,52.78s-7.2-31.85,11.82-37h3S57.52,23.49,62.13,50"/><ellipse class="cls-1" cx="59.81" cy="60.07" rx="10.96" ry="11.74"/><path class="cls-2" d="M60.67,48.33s.12,0,.35.08a7.12,7.12,0,0,1,1,.35A9.29,9.29,0,0,1,65,50.9a11.08,11.08,0,0,1,2.57,4.91,12.7,12.7,0,0,1,0,6.78,12.86,12.86,0,0,1-3.44,5.85,10.2,10.2,0,0,1-4.85,2.68,7.06,7.06,0,0,1-3.74-.1,4.47,4.47,0,0,1-.93-.41c-.2-.12-.3-.19-.29-.2s.45.2,1.28.42a7.29,7.29,0,0,0,3.59-.06,10.08,10.08,0,0,0,4.6-2.67,12.65,12.65,0,0,0,3.28-5.64,12.48,12.48,0,0,0,0-6.52,11,11,0,0,0-2.38-4.78,9.94,9.94,0,0,0-2.88-2.21A13.17,13.17,0,0,1,60.67,48.33Z"/><path class="cls-2" d="M69.32,66.15c-.14,0-.19-.87-.91-1.48s-1.59-.52-1.61-.66.19-.19.57-.22a2,2,0,0,1,2.07,1.77C69.48,65.93,69.38,66.16,69.32,66.15Z"/><path class="cls-2" d="M68.86,62.54c0,.14-.39.14-.78.13s-.73,0-.77-.18.3-.36.78-.34S68.91,62.41,68.86,62.54Z"/><path class="cls-2" d="M68.86,52.84c0,.14-.59.09-1.17.33s-1,.63-1.08.55.12-.74.89-1S68.93,52.72,68.86,52.84Z"/><path class="cls-2" d="M84.12,3.52c0,.09-1.34.06-3.49.17a17.91,17.91,0,0,0-3.69.57A9.49,9.49,0,0,0,73,6.38a6.15,6.15,0,0,0-2,3.86,7.71,7.71,0,0,0,.57,3.6,33.75,33.75,0,0,0,1.6,3.07,2.83,2.83,0,0,1-.63-.71A11.42,11.42,0,0,1,71.2,14a7.75,7.75,0,0,1-.7-3.79A6.5,6.5,0,0,1,72.65,6a9.64,9.64,0,0,1,4.16-2.22,16.41,16.41,0,0,1,3.8-.47c1.09,0,2,0,2.57.08A3.26,3.26,0,0,1,84.12,3.52Z"/><path class="cls-2" d="M70.51,2.92c.07.05-.43.74-.9,2a9.8,9.8,0,0,0-.49,5.1,9.8,9.8,0,0,0,2.24,4.61c.88,1,1.59,1.48,1.54,1.55a4.74,4.74,0,0,1-1.81-1.3A9.05,9.05,0,0,1,69.27,4.77,4.75,4.75,0,0,1,70.51,2.92Z"/><path class="cls-7" d="M118.72,16.7a1.19,1.19,0,0,1-.07.38,6.73,6.73,0,0,1-.36,1.06,9.69,9.69,0,0,1-2.4,3.39,9.55,9.55,0,0,1-5.67,2.52,10.14,10.14,0,0,1-7.33-2.29l.38-.05a11.73,11.73,0,0,1-9.61,5A11.54,11.54,0,0,1,83.87,21a8.22,8.22,0,0,1-.56-1.16,1.46,1.46,0,0,1-.13-.43s.27.56.86,1.49a11.85,11.85,0,0,0,3.21,3.32,11.06,11.06,0,0,0,6.42,2,11.37,11.37,0,0,0,9.18-4.82l.16-.23.22.18a9.77,9.77,0,0,0,7,2.22,9.33,9.33,0,0,0,5.48-2.32,10.17,10.17,0,0,0,2.46-3.21C118.54,17.2,118.68,16.69,118.72,16.7Z"/><path class="cls-7" d="M119.82,28.15s-.39.64-1.37,1.32a8.19,8.19,0,0,1-8.83.24,3.86,3.86,0,0,1-1.44-1.24c.06-.06.6.41,1.62.92a8.75,8.75,0,0,0,8.45-.23C119.24,28.59,119.76,28.08,119.82,28.15Z"/><path class="cls-1" d="M120.41,94.74a2.56,2.56,0,0,1,.12.41c.06.28.13.69.2,1.23.14,1.09.3,2.69.45,4.77.29,4.15.62,10.16.61,17.6a52.21,52.21,0,0,1-1.09,12.13,19,19,0,0,1-2.69,6.26,16.62,16.62,0,0,1-5.36,4.84,36.46,36.46,0,0,1-14.75,4.44,40.09,40.09,0,0,1-16.49-1.29,23.76,23.76,0,0,1-7.51-3.86,21.68,21.68,0,0,1-5.41-6.17c-2.75-4.69-3.87-9.87-4.62-14.71s-1.17-9.52-1.7-13.86L60.79,94.46,58.81,77,58.3,72.2,58.18,71a2.57,2.57,0,0,1,0-.42,2.56,2.56,0,0,1,.08.42l.17,1.23L59,76.94l2.15,17.47,1.46,12.07c.55,4.33,1,9,1.74,13.84s1.89,9.94,4.58,14.53a21.2,21.2,0,0,0,5.29,6,23.28,23.28,0,0,0,7.35,3.78,39.7,39.7,0,0,0,16.27,1.28,36.1,36.1,0,0,0,14.56-4.35,16.18,16.18,0,0,0,5.22-4.69,18.56,18.56,0,0,0,2.65-6.11,52.31,52.31,0,0,0,1.14-12c.06-7.43-.22-13.44-.45-17.59-.12-2.07-.24-3.68-.35-4.77-.05-.54-.11-1-.15-1.23A2.57,2.57,0,0,1,120.41,94.74Z"/><path class="cls-1" d="M140.06,241.11s0,.2-.07.59l-.26,1.72-1.06,6.6-4,24.24c-.43,2.56-.89,5.24-1.59,8a34.27,34.27,0,0,1-3.18,8.26,21.15,21.15,0,0,1-6.29,7.08,13.68,13.68,0,0,1-9.64,2.49,11.15,11.15,0,0,1-8.68-5.63,14.66,14.66,0,0,1-1.39-5.32c-.18-1.84-.2-3.69-.3-5.55l-1-23.08-3.3-81-.94-24.55-.23-6.68,0-1.74c0-.39,0-.59,0-.59s0,.2.05.59l.1,1.73.33,6.67,1.11,24.54,3.45,81,1,23.08c.09,1.86.12,3.72.29,5.52a14.18,14.18,0,0,0,1.33,5.14,10.67,10.67,0,0,0,8.3,5.39,13.22,13.22,0,0,0,9.32-2.39,20.73,20.73,0,0,0,6.17-6.91c3-5.32,3.88-11,4.78-16.11L138.46,250l1.16-6.58.31-1.71C140,241.3,140.06,241.11,140.06,241.11Z"/><polygon class="cls-1" points="136.72 208 148.26 186.72 183.37 186.72 184.48 188.83 154.76 238.23 121.13 239.85 136.72 208"/><polygon class="cls-8" points="136.72 208 148.26 186.72 183.37 186.72 184.48 188.83 154.76 238.23 121.13 239.85 136.72 208"/><polygon class="cls-1" points="137.84 210.12 149.38 188.83 184.48 188.83 155.88 240.34 122.24 241.97 137.84 210.12"/><circle class="cls-9" cx="165.56" cy="196.39" r="1.76" transform="translate(-86.44 146.65) rotate(-38.7)"/><path class="cls-5" d="M2.88,219.75V257a22.61,22.61,0,0,0,8.31,17.52h0A22.61,22.61,0,0,0,34,277.89l81.92-36.31-8-27.32L42,236,42.09,219Z"/><path class="cls-5" d="M104.7,217.19l5.55-6.89a19.26,19.26,0,0,1,15-7.17h4.85l3.31,3.72s23.74,1,24.61,4l0,.95v.55l-20.3,1.37s17.27-.05,18.31,0,4.82-.29,4.74,1.74c-.06,1.67-2,3-5,3.42-1.23.18-16.19,1.48-16.19,1.48l16.47-.15c1.85,0,1.61,3,.52,3.32-.87.29-22,6.45-22,6.45s3.55,2.38,6.44,2.17,7.86-3.93,8.89-2.17.83,2.79.21,3.21a73.86,73.86,0,0,1-9.72,4.55c-2.27.62-20.85,3.56-20.85,3.56l-6.7,1.08Z"/><path class="cls-5" d="M179.57,197.13s3.67,1.28,1.8,6a40.25,40.25,0,0,1-7.45,11.79,4.33,4.33,0,0,1-1.46,4.23s2.6.65,1,5a4.94,4.94,0,0,1-3.09,6.5s1.3,3.74-3.41,5.53-9.26-1.3-9.26-1.3Z"/><path class="cls-5" d="M172.13,214.56c-3.34.9-7,1.62-10.09,2.79-1,.39-2,.41-2.69,1.26a2.32,2.32,0,0,0-.06,3,3.24,3.24,0,0,0,2.71.55,47.91,47.91,0,0,0,10.34-2.87"/><path class="cls-5" d="M170.79,220.13c-3.34.9-7,1.62-10.09,2.79-1,.39-2,.41-2.69,1.26a2.32,2.32,0,0,0-.06,3,3.24,3.24,0,0,0,2.71.55A47.92,47.92,0,0,0,171,224.83"/><path class="cls-5" d="M168.9,225.86c-3.34.9-7,1.62-10.09,2.79-1,.39-2,.41-2.69,1.26a2.32,2.32,0,0,0-.06,3,3.24,3.24,0,0,0,2.71.55,47.92,47.92,0,0,0,10.34-2.87"/><path class="cls-6" d="M172.14,219.38c-.06-.14-2.41.68-5.37,1.5s-5.4,1.34-5.37,1.49a20.1,20.1,0,0,0,5.51-1A20.1,20.1,0,0,0,172.14,219.38Z"/><path class="cls-6" d="M172.76,224.29c-.05-.14-2.75.75-6.11,1.73s-6.11,1.69-6.08,1.84a28.08,28.08,0,0,0,6.22-1.34A28.08,28.08,0,0,0,172.76,224.29Z"/><ellipse class="cls-6" cx="164.9" cy="232.03" rx="5.84" ry="0.26" transform="translate(-51.33 46.9) rotate(-14.03)"/><path class="cls-6" d="M174.9,213.88c-.05-.14-3,.86-6.73,1.81s-6.78,1.52-6.76,1.67a7.37,7.37,0,0,0,2-.17,50.17,50.17,0,0,0,9.57-2.47A7.37,7.37,0,0,0,174.9,213.88Z"/><ellipse class="cls-6" cx="133.16" cy="207.09" rx="0.26" ry="8.33" transform="translate(-74.63 339.16) rotate(-89.7)"/><path class="cls-6" d="M46.32,235a2.46,2.46,0,0,0-.81.09,17,17,0,0,0-2.15.55,24.65,24.65,0,0,0-11.87,8.24,17,17,0,0,0-1.26,1.82,2.47,2.47,0,0,0-.37.73c.07,0,.71-.91,1.92-2.31A28.17,28.17,0,0,1,43.48,236C45.22,235.37,46.34,235.11,46.32,235Z"/><circle class="cls-1" cx="169.27" cy="106.37" r="4.52" transform="translate(-19.7 41.14) rotate(-13.1)"/><path class="cls-1" d="M172.69,104c-.17.22-3.89-2.77-7.7-7.17s-6.81-8-6.64-8.13,3.61,3.09,7.39,7.47S172.87,103.82,172.69,104Z"/><path class="cls-1" d="M165.33,82c.26,0-.14,2.54-2.25,4.7s-4.59,2.67-4.62,2.41,2-1.12,3.9-3.1S165,81.89,165.33,82Z"/><path class="cls-1" d="M168.21,85.68c.27,0,0,2.52-2.23,4.48s-4.72,2-4.69,1.74,2.11-.73,4-2.48S167.93,85.6,168.21,85.68Z"/><circle class="cls-1" cx="140.41" cy="103.49" r="2.58" transform="translate(-12.06 188.2) rotate(-65.45)"/><path class="cls-1" d="M142.77,103.62c-.24.06-1-2.59-1.15-5.92s-.23-6,0-6,.72,2.65.9,5.94S143,103.57,142.77,103.62Z"/><path class="cls-1" d="M149.91,92.8c.1.18-1.76,1.26-4.37,1.15a6,6,0,0,1-3.14-1c-.72-.49-.94-1-.85-1.09s.46.25,1.16.54a8.21,8.21,0,0,0,2.87.61C147.92,93.17,149.82,92.53,149.91,92.8Z"/><circle class="cls-1" cx="148.7" cy="104.59" r="2.58" transform="translate(-8.22 196.39) rotate(-65.45)"/><path class="cls-1" d="M151.06,104.72c-.24.06-1-2.59-1.15-5.92s-.23-6,0-6,.72,2.65.9,5.94S151.3,104.67,151.06,104.72Z"/><path class="cls-1" d="M150.09,94.55c.14.19-1.58,1.34-4,1.32s-4.15-1.16-4-1.35,1.82.47,4,.46S150,94.32,150.09,94.55Z"/></g></g></svg>