<svg xmlns="http://www.w3.org/2000/svg" viewBox="0 0 398.31 305.49"><defs><style>.cls-1{isolation:isolate;}.cls-2{fill:#fffcf0;}.cls-3{fill:#fff4e5;}.cls-10,.cls-11,.cls-13,.cls-19,.cls-3,.cls-7{mix-blend-mode:multiply;}.cls-4{fill:#f4f1df;}.cls-5,.cls-6,.cls-7{fill:#ffc266;}.cls-10,.cls-11,.cls-13,.cls-6,.cls-7{opacity:0.4;}.cls-15,.cls-6{mix-blend-mode:screen;}.cls-11,.cls-8{fill:#e49477;}.cls-10,.cls-9{fill:#b8a691;}.cls-12,.cls-13{fill:#eee4c0;}.cls-14,.cls-15{fill:#748b97;}.cls-16{fill:#eee4da;}.cls-17{fill:#4b1c15;}.cls-18,.cls-19{fill:#afb9b7;}</style></defs><title>track</title><g class="cls-1"><g id="Layer_2" data-name="Layer 2"><g id="OBJECTS"><path class="cls-2" d="M38.44,28.5c3,5.91,10.06,9.14,16.67,8.62s12.67-4.32,17-9.37c3.76-4.41,6.4-10.49,4.53-16-2.19-6.44-10-9.57-16.71-8.72C48.83,4.45,31.57,15,38.44,28.5Z"/><path class="cls-2" d="M5.38,68.57a6.7,6.7,0,0,0-5.37,6C-.12,77.2,1.46,79.9,3.77,82c2,1.83,5,3.33,7.86,3a6,6,0,0,0,5.43-6C17,74.52,12.64,66.86,5.38,68.57Z"/><path class="cls-3" d="M21.36,215.12a6.92,6.92,0,0,0-5.71-5.43,10.24,10.24,0,0,0-7.76,2.54c-2,1.6-3.67,4.05-3.51,6.67.18,3.08,2.94,5.21,5.72,5.48C14.65,224.82,22.65,221.76,21.36,215.12Z"/><ellipse class="cls-4" cx="187.37" cy="286.96" rx="177.27" ry="18.53"/><path class="cls-5" d="M95.4,52.16c-27.48,10.89-48.27,38.54-55,69.66s-2.13,70.35,20.38,103.7c41.8,61.91,120.63,68,149.87,68.26,40.89.32,71.45-7.72,105.09-24.07,46.81-22.75,55.15-86.4,29.57-117.47-19.28-23.42-43.88-28-78.71-14-13.87,5.59-29.27,6-40.63-4.5-9.7-9-14.75-22.37-20.82-34.58-5.12-10.28-11.8-20.61-21.74-25.75C174.59,68.89,167.6,62.87,159,57.67A72.35,72.35,0,0,0,95.4,52.16Z"/><path class="cls-6" d="M174.88,253.56c-7.09.63-17.32-2.83-23.54-6-16.63-8.38-7.16-23.24,9.19-15,3.94,2,8.49,2.68,12.85,4.31S180.08,253.09,174.88,253.56Zm78.47-17.75c-2.93-5.13-10.71-7.24-17.56-6.68s-13.15,3.14-19.63,5a84,84,0,0,1-21.67,3.9c-6.81.24-10,17.71-.44,18.47,11,.87,21.6,1.34,32.46.24,7.18-.73,14.64-1.78,20.47-5.31S256.43,241.21,253.35,235.81Z"/><path class="cls-6" d="M83.59,171.66c.64,1.56,1.46,3.25,3,3.85,2.21.83,4.67-1.14,5.28-3.43s-.05-4.69-.64-7c-9.52-37.19.8-76.65,28.5-103.22.71-.68,1.44-8.43-7.24-4.71-3,1.27-8.79,4.24-11.12,6.45-6.37,6.06-11.16,15-14.87,22.87a109.23,109.23,0,0,0-10.09,54.47A101.22,101.22,0,0,0,83.59,171.66Z"/><path class="cls-7" d="M108.48,208.67a18.73,18.73,0,0,0-6.6,11.92c1.44-4.73,6-8,10.77-9.25s9.82-.87,14.75-.48a17.21,17.21,0,0,0-6.93,17.68,16.2,16.2,0,0,1,10.28-11.85c2.14-.76,5-1.67,5-3.94a4.38,4.38,0,0,0-1.8-3C126.59,203.1,116.33,202.21,108.48,208.67Z"/><path class="cls-7" d="M114.47,193.43c-5.52-6.52-15-10.45-23.83-9-4,.65-7.25,2.56-8.81,5.23,2.38-2.46,7.39-3,12.17-2.2a44,44,0,0,1,7.28,1.94,34.63,34.63,0,0,0-24.05,7.1c-4.38,3.52-7,8.07-7.07,12.45,1.22-4.68,6.85-8.69,13.1-10.92,5.44-1.94,13.11-5.39,21.23-5.29-4.13,1.35-6.84,4.36-6.82,8a9.86,9.86,0,0,1,5.09-3.34c-4.89,4.67-8.6,10.53-6.34,14.76.63-5.18,5.37-10.37,12-13.2a31.51,31.51,0,0,0,4.12-2c1.4,0,2.61-.16,2.93-1S115.15,194.23,114.47,193.43Z"/><path class="cls-7" d="M344.69,205.35l-25.58-25.19c-3.78-3.72-7.8-7.59-12.93-9-9-2.45-18.05,3.49-25.41,9.29-4.17,3.29-8.37,2.52-12.51,2.84,5.59-16.69,4-36.16-4.34-48.07-10.34-14.81-23.53-17.7-42.21-8.83-7.44,3.53-15.7,3.8-21.79-2.84-5.2-5.67-7.91-14.14-11.17-21.86-2.74-6.5-6.33-13-11.66-16.28-4.74-2.89-8.48-6.7-13.09-10A33.7,33.7,0,0,0,129.9,72c-14.74,6.88-25.89,24.37-29.5,44s-1.14,44.48,10.93,65.56c22.41,39.14,64.69,43,80.37,43.16,21.93.2,38.32-4.88,56.36-15.22a39,39,0,0,0,5.22-3.62c1.48,1.15,4.78,2.26,5.82,3.33a24.21,24.21,0,0,1,4.63,7.9,118.59,118.59,0,0,1,7.55,27.28c.93,6.14,1.42,12.5,4.07,18.11s8.16,10.45,14.36,10.1c5.88-.33,10.53-5,14-9.84s6.51-10.18,11.6-13.13c4-2.31,9.21-3.17,11.62-7.1,1.84-3,1.41-7,3.22-10,4.24-7.12,17.4-4.57,20.81-12.13C353.31,215.11,348.83,209.42,344.69,205.35Z"/><path class="cls-8" d="M352.68,194.89s7.61,6.6,10.79,4.65,12.71-10.51,16.86-11,12,4.89,8.55,8.55S357.6,222,354.67,222.5s-15.12-12.8-15.12-12.8Z"/><path class="cls-8" d="M313.18,255.13s-.71,3.65,3,3.82,16.41-1.53,20.12.4,7.14,10.78,2.25,11.88-39.88,3-42.58,1.75-.11-16.33-.11-16.33Z"/><path class="cls-9" d="M299.45,163.54s26.39,82.09,27.69,89.91-35.51,18.89-39.42,12.71-21.83-75.9-23.13-77.21S281.86,152.46,299.45,163.54Z"/><path class="cls-10" d="M327.14,253.45c-1.3-7.82-27.69-89.91-27.69-89.91-17.59-11.08-36.16,24.11-34.86,25.41.37.37,2.08,6.26,4.43,14.65v0c1.25-4.55,12.23-12.33,15.08-13.38,12.79-4.68,22.44,26,31.49,72.64C322.42,260,327.65,256.48,327.14,253.45Z"/><path class="cls-8" d="M227.86,107.67s14.18,19.9,20,16.94,14.33-20.52,18.24-20.2,3.75,13.19-5.54,22.4-24.15,15.23-38.71,5.54-6.9-18.32-6.9-18.32Z"/><path class="cls-11" d="M227.86,107.67s14.18,19.9,20,16.94,14.33-20.52,18.24-20.2,3.75,13.19-5.54,22.4-24.15,15.23-38.71,5.54-6.9-18.32-6.9-18.32Z"/><path class="cls-12" d="M108.57,136.42c-5.07-27.78,5.19-47.32,17.16-57.09,14.07-11.48,40.77-18.51,69.14-8.55,18,6.33,33,36.89,33,36.89L214.91,114l14.17,37.63-2.2,47.16s-22.6,24.25-56.45,13.44C124.51,197.58,114.71,170,108.57,136.42Z"/><path class="cls-13" d="M148,107.18s25.82,20.77,25.74,25.17c0,0-15.47-28.1-21.09-30.05s-16.86,0-16.86,0S144.75,104.54,148,107.18Z"/><path class="cls-13" d="M113.76,126.24S133.31,185.12,214.91,158c0,0-13.93,25.9-55.71,22.48C133,178.33,110.34,152.87,113.76,126.24Z"/><path class="cls-8" d="M168.74,58.31l5,14.17s-8.88,10.38-17.55,0l-3.54-12.95S164.7,55.14,168.74,58.31Z"/><path class="cls-11" d="M168.53,64.94a17.94,17.94,0,0,1,2-1.41l-1.83-5.22c-4-3.18-16.13,1.22-16.13,1.22l3.54,12.95a12.58,12.58,0,0,0,5.77,4.2C162.82,72.17,164.72,68,168.53,64.94Z"/><path class="cls-8" d="M172.91,38.81s2.75,11.68-2,19.87c-2.26,3.92-6.19,3.54-14.39,2.47-6.48-.84-11.37-4-12.73-11.39-1.71-9.28,2.49-15.49,7.25-16.7C162,30.3,161.81,41,172.91,38.81Z"/><path class="cls-14" d="M264.1,57.15c.31.09,16.94,4.1,16.94,5.56s-23.38,53.1-25.08,54.17-12.54-10-13-10.68S260.66,56.18,264.1,57.15Z"/><path class="cls-15" d="M264.06,58.87c.26.07,13.21,3.3,13.21,4.53S255.66,113.67,254,113.35c-1-.19-9-7.46-9.42-8S261.25,58.05,264.06,58.87Z"/><path class="cls-9" d="M185.36,215c.4,1.1,44.76,6.56,67.24-14.61s35.18-34.21,39.74-33.55,34.21,49.84,38.77,54.08S354.9,200,358.8,188.62c0,0-39.09-56.28-59-64.5-13-5.38-52.45,1.79-80.46,26.06S180.71,202.1,185.36,215Z"/><path class="cls-10" d="M239.72,202.38c-9,2.66-18.86,4.8-27.78.79a19.5,19.5,0,0,1-11.12-22.45c2.33-10.09,10.39-17.25,18.25-23.31,8.31-6.4,16.56-12.23,23.75-20,1.48-1.59,2.91-3.22,4.33-4.86a115,115,0,0,0-27.78,17.57c-28,24.27-38.66,51.92-34,64.78.4,1.1,44.76,6.56,67.24-14.61l5.27-5A121.19,121.19,0,0,1,239.72,202.38Z"/><path class="cls-10" d="M310.57,190.74c8.93,13.43,18.16,27.92,20.54,30.13,1.8,1.67,5.87-1.22,10.38-6C331.61,206.33,320.25,199.48,310.57,190.74Z"/><path class="cls-16" d="M374.37,185.67c-2.76,3.85.95,15,5.7,19.19,0,0-24.54,26.47-25.59,27.12s1.92,4,4.78,1.09,36.27-33.78,39.06-45.89C398.31,187.18,383.35,173.12,374.37,185.67Z"/><path class="cls-16" d="M339.57,254c-4.67.83-9.78,11.36-9.34,17.71,0,0-36,1.77-37.26,1.5s-1.42,4.2,2.65,4.12,49.55,1.2,60-5.51C355.63,271.84,354.76,251.33,339.57,254Z"/><path class="cls-17" d="M153,1.55c3.87-2.1,13.56-1.14,19.18,2.52s5.13-5.38,12.7-3.91,13.68,4.4,11.48,8.31,2.44,1.22,2.2,6.84-2.69,9.77-5.62,10.75-4.15,2.34-5.86,6.54-15.31,12.76-23.9,4.94-13.23-2.69-14.21-1-.73,4.4-3.66,7.57-5.13,4.4-3.42,8.31-9.53,2.12-13.68-4.4c-7-2.12-8.84-13.39-1.83-16.74-1.79-5.24-3.41-7.91-2.16-13.72s7-12.15,12.7-9.94C146.75,11.48,148.84,3.79,153,1.55Z"/><path class="cls-18" d="M153,1.55c-.49-1.82-11.6-.34-14.63,4.15a38.87,38.87,0,0,0-3.58,33.62s7.21-1.65,9.41-2.26C141.64,21.17,146,7.94,153,1.55Z"/><ellipse class="cls-18" cx="144.32" cy="48.55" rx="12.21" ry="14.08" transform="translate(-5.53 21.53) rotate(-8.37)"/><ellipse class="cls-19" cx="144.32" cy="48.55" rx="12.21" ry="14.08" transform="translate(-5.53 21.53) rotate(-8.37)"/><ellipse class="cls-18" cx="142" cy="48.89" rx="12.21" ry="14.08" transform="translate(-5.6 21.19) rotate(-8.37)"/><path class="cls-8" d="M173.7,132.34s-11,27-16.29,30.83c0,0,43.08,8.75,68.74-13s31.27-35.92,34.69-37.14,17.1-9.53,15.15-20.77-11.73,7.82-14.17,5.13-3.91-8.55-6.11-2.69-2.2,10.26-6.11,13.44S219,144.56,173.7,132.34Z"/></g></g></g></svg>